# xmcd
#
# Track frame offsets: 
#        150
#        24797
#        48447
#        87395
#        103702
#        124097
#        162457
#        185750
#        217495
#        242787
#
# Disc length: 3530 seconds
#
# Revision: 10
# Processed by: cddbd v1.5.2PL0 Copyright (c) Steve Scherf et al.
# Submitted via: ExactAudioCopyFreeDBPlugin 1.0
#
DISCID=8f0dc80a
DTITLE=BB King - Why I Sing The Blues
DYEAR=1992
DGENRE=Blues
TTITLE0=The Thrill Is Gone
TTITLE1=Ghetto Woman
TTITLE2=Why I Sing The Blues
TTITLE3=Ain't Nobody Home
TTITLE4=Hummingbird
TTITLE5=To Know You Is To Love You
TTITLE6=How Blue Can You Get
TTITLE7=Sweet Sixteen
TTITLE8=So Excited
TTITLE9=Chains And Things
EXTD=
EXTT0=
EXTT1=
EXTT2=
EXTT3=
EXTT4=
EXTT5=
EXTT6=
EXTT7=
EXTT8=
EXTT9=
PLAYORDER=
